<svg width="208" height="208" viewBox="0 0 208 208" fill="none" xmlns="http://www.w3.org/2000/svg">
<path fill-rule="evenodd" clip-rule="evenodd" d="M104.001 19.3444C100.197 19.3444 96.4611 20.3455 93.1673 22.2471L38.6193 53.7331C35.3244 55.6355 32.5885 58.3719 30.6868 61.6672C28.785 64.9625 27.7846 68.7005 27.786 72.5051V135.486C27.7861 139.289 28.7873 143.025 30.6889 146.319C32.5906 149.612 35.3257 152.348 38.6193 154.249L93.1673 185.744C96.4611 187.645 100.197 188.647 104.001 188.647C107.804 188.647 111.54 187.645 114.834 185.744L169.382 154.249C172.676 152.348 175.411 149.612 177.312 146.319C179.214 143.025 180.215 139.289 180.215 135.486V72.4965C180.215 68.6933 179.214 64.9571 177.312 61.6635C175.411 58.3698 172.676 55.6347 169.382 53.7331L114.834 22.2471C111.54 20.3455 107.804 19.3444 104.001 19.3444ZM112.334 142.705C116.114 145.835 121.824 150.561 131.884 150.561C139.002 150.561 146.064 147.329 150.31 142.126C153.112 138.695 156.095 132.742 154.398 123.862C154.197 122.792 153.448 121.91 152.441 121.513C151.433 121.119 150.286 121.288 149.415 121.932C149.322 122.007 146.975 123.726 143.216 123.726C141.348 123.726 139.427 123.294 137.508 122.441C135.159 121.395 133.27 119.002 131.463 116.712C130.739 115.795 130.029 114.895 129.307 114.105C125.847 110.31 121.927 106.013 115.464 105.964C111.203 105.964 107.286 107.571 103.781 110.755C100.261 107.557 96.3149 105.94 91.9419 105.94C85.6099 105.989 81.7719 110.275 78.3813 114.06L78.3716 114.071C77.6748 114.851 76.9888 115.735 76.2896 116.637C74.5005 118.945 72.6247 121.364 70.2595 122.417C68.3407 123.272 66.4409 123.702 64.6173 123.702C61.0445 123.702 58.8753 122.071 58.7579 121.983L58.7542 121.98C57.9012 121.277 56.756 121.072 55.7155 121.446C54.6814 121.817 53.911 122.706 53.6871 123.793C51.8381 132.772 54.7545 138.762 57.5264 142.206C61.6611 147.343 68.6043 150.533 75.6523 150.533C85.1401 150.533 90.5123 146.341 94.8281 142.972L95.1347 142.737C96.7896 141.445 98.2565 140.185 99.5462 139.078L99.6061 139.026L99.6754 138.967C101.101 137.743 102.84 136.249 103.336 136.048C103.345 136.047 103.379 136.041 103.425 136.032C103.529 136.013 103.697 135.983 103.777 135.976C103.8 135.979 104.146 135.995 104.168 135.995C104.897 136.25 106.991 138.086 108.67 139.56L108.802 139.676C109.874 140.614 111.047 141.64 112.331 142.703L112.334 142.705Z" fill="#2C2C2C"/>
</svg>
